<?xml version="1.0" encoding="UTF-8" standalone="no"?>
<!-- Created with Inkscape (http://www.inkscape.org/) -->

<svg
   xmlns:dc="http://purl.org/dc/elements/1.1/"
   xmlns:cc="http://creativecommons.org/ns#"
   xmlns:rdf="http://www.w3.org/1999/02/22-rdf-syntax-ns#"
   xmlns:svg="http://www.w3.org/2000/svg"
   xmlns="http://www.w3.org/2000/svg"
   xmlns:sodipodi="http://sodipodi.sourceforge.net/DTD/sodipodi-0.dtd"
   xmlns:inkscape="http://www.inkscape.org/namespaces/inkscape"
   id="svg3364"
   version="1.1"
   inkscape:version="0.91 r13725"
   width="168.1869"
   height="42.576859"
   viewBox="0 0 168.18691 42.576859"
   sodipodi:docname="site-logo.svg">
  <metadata
     id="metadata3370">
    <rdf:RDF>
      <cc:Work
         rdf:about="">
        <dc:format>image/svg+xml</dc:format>
        <dc:type
           rdf:resource="http://purl.org/dc/dcmitype/StillImage" />
        <dc:title></dc:title>
      </cc:Work>
    </rdf:RDF>
  </metadata>
  <defs
     id="defs3368" />
  <sodipodi:namedview
     pagecolor="#ffffff"
     bordercolor="#666666"
     borderopacity="1"
     objecttolerance="10"
     gridtolerance="10"
     guidetolerance="10"
     inkscape:pageopacity="0"
     inkscape:pageshadow="2"
     inkscape:window-width="2560"
     inkscape:window-height="1331"
     id="namedview3366"
     showgrid="false"
     inkscape:zoom="6.0531165"
     inkscape:cx="117.04124"
     inkscape:cy="11.355981"
     inkscape:window-x="0"
     inkscape:window-y="1"
     inkscape:window-maximized="1"
     inkscape:current-layer="svg3364"
     fit-margin-top="0"
     fit-margin-left="0"
     fit-margin-right="0"
     fit-margin-bottom="0"
     showborder="false" />
  <path
     style="fill:#000000"
     d="m 72.537358,24.958437 c 0,-18.3516782 -0.02655,-17.8366668 1.03211,-20.0218034 0.715205,-1.4762437 2.421784,-3.1933258 3.91746,-3.9415824 1.66877,-0.83485125 2.99702,-1.09468304 4.919853,-0.96241857 4.301833,0.29591 7.556223,3.26172547 8.328133,7.58965927 0.197809,1.1090647 0.250486,4.7780531 0.255546,17.8003571 l 0.0064,16.403338 -1.091161,0 -1.091167,0 -0.05322,-16.95164 C 88.701813,5.9278243 88.782167,7.0849203 87.386387,5.08079 84.573244,1.0416223 78.207057,1.3133808 75.707027,5.5793561 74.719649,7.2641918 74.735101,6.9552736 74.732756,25.057111 l -0.0021,16.768876 -1.096606,0 -1.096606,0 0,-16.86755 z M 122.1086,39.227396 c -0.39234,-0.392339 -0.4225,-0.395284 -0.93697,-0.09139 -0.85646,0.505931 -1.6072,0.406505 -2.32109,-0.307405 -0.71419,-0.714178 -0.79956,-1.366673 -0.28885,-2.207657 0.32468,-0.534629 0.32296,-0.555832 -0.0951,-1.172039 -0.47429,-0.698893 -0.42617,-1.199801 0.1643,-1.710366 1.18388,-1.023658 2.54367,0.77506 1.45887,1.929773 l -0.39361,0.418966 0.88984,0.876443 c 0.54746,0.53923 0.93745,0.799377 1.0136,0.676144 0.2216,-0.358532 0.47743,-0.21105 0.37078,0.213757 -0.0765,0.304433 0.042,0.553766 0.44695,0.941802 0.30297,0.290265 0.50782,0.597413 0.4552,0.682552 -0.15059,0.243653 -0.32765,0.185568 -0.7638,-0.250586 z m -1.24431,-0.436619 c 0.47372,-0.181781 0.3386,-0.493744 -0.6249,-1.442753 -0.795,-0.783035 -0.94712,-0.865439 -1.16837,-0.632814 -0.45122,0.47444 -0.48639,0.976712 -0.11152,1.593125 0.29435,0.484017 0.47649,0.593379 0.98828,0.593379 0.34508,0 0.75751,-0.04991 0.91651,-0.110937 z m -1.08831,-3.53704 c 0.44808,-0.495129 0.24765,-1.286732 -0.3258,-1.286732 -0.809,0 -1.10478,0.700999 -0.55305,1.31067 0.38082,0.420791 0.47879,0.418122 0.87885,-0.02394 z m -26.585952,2.494098 c 0,-1.525703 -0.05851,-1.834749 -0.520025,-2.749856 l -0.520034,-1.030974 1.845085,9.29e-4 c 1.014813,5.76e-4 2.157908,0.08788 2.540226,0.194048 0.976186,0.271081 1.759582,1.032881 1.954357,1.900501 0.196676,0.876118 -0.0078,1.194238 -0.768041,1.194238 -0.680507,0 -0.597219,0.38304 0.12533,0.576274 0.619408,0.165655 0.819554,0.436547 0.823324,1.114321 0.0039,0.500699 -0.0019,0.502608 -1.276572,0.502608 l -1.279366,0 0,-0.548299 c 0,-0.520107 -0.342023,-0.803059 -0.386625,-0.319843 -0.01162,0.125652 -0.0321,0.351826 -0.04568,0.50261 -0.0186,0.208226 -0.321261,0.287145 -1.25829,0.328191 l -1.233668,0.05403 0,-1.718882 z m 3.048027,-1.880222 c 0.140171,-0.365269 -0.304368,-0.667771 -0.609351,-0.414655 -0.276573,0.229525 -0.116655,0.707252 0.236744,0.707252 0.143184,0 0.310861,-0.131671 0.372607,-0.292597 z m 30.702975,3.460559 c -0.0671,-0.06702 -0.12186,-0.893551 -0.12186,-1.83675 0,-1.724612 -0.19142,-2.427439 -0.87282,-3.204574 -0.15426,-0.175914 -0.24712,-0.322902 -0.20642,-0.326636 0.99111,-0.09096 4.77207,0.02645 5.11632,0.158863 0.57605,0.221582 1.40472,1.173583 1.55995,1.792107 0.17113,0.681793 -0.0439,1.895445 -0.42635,2.407868 -0.63484,0.850287 -1.44489,1.130967 -3.264,1.130967 -0.91465,0 -1.71783,-0.05484 -1.78482,-0.121845 z m 2.94785,-2.347166 c -0.0658,-1.449024 -0.3981,-1.654592 -0.47567,-0.294282 -0.0613,1.075417 0.0304,1.483922 0.33286,1.483922 0.12598,0 0.1774,-0.428187 0.14281,-1.18964 z m 2.59606,2.297029 c 0,-0.09459 0.0829,-0.223172 0.18407,-0.28574 0.36795,-0.227401 0.73209,-1.193005 0.90179,-2.391315 0.14308,-1.010347 0.2785,-1.333498 0.77231,-1.842985 1.83662,-1.894913 4.75192,-0.746246 4.75192,1.872319 0,1.050645 -0.10208,1.174797 -0.96587,1.174797 -0.44084,0 -0.68623,0.07258 -0.61811,0.182769 0.062,0.100521 0.27259,0.182766 0.4677,0.182766 0.55231,0 0.4177,0.515283 -0.23924,0.91584 -0.50997,0.310925 -0.92366,0.362262 -2.92427,0.362847 -1.33473,4.04e-4 -2.3303,-0.07279 -2.3303,-0.171298 z m 4.20365,-3.588145 c 0,-0.170198 -0.12436,-0.263435 -0.30471,-0.228459 -0.4585,0.08893 -0.52146,0.516012 -0.076,0.516012 0.22448,0 0.38075,-0.11801 0.38075,-0.287553 z m 2.50526,3.120448 c 0.4597,-0.576168 0.60022,-0.639683 1.41511,-0.639687 0.96822,-5e-6 0.97494,-0.291912 0.01,-0.397167 -0.54393,-0.05927 -0.54829,-0.06878 -0.54695,-1.191459 8.7e-4,-1.004524 0.0629,-1.197043 0.54831,-1.713106 0.86607,-0.920649 1.3698,-1.043311 3.8798,-0.944809 l 2.23627,0.08778 -0.45704,0.57156 c -0.25138,0.314358 -0.54129,0.674367 -0.64426,0.800019 -0.10297,0.125651 -0.48828,0.228459 -0.85625,0.228459 -0.73361,0 -0.63362,0.292836 0.13514,0.395749 0.39075,0.05233 0.46413,0.16705 0.5067,0.792237 0.0605,0.888905 -0.43225,1.767605 -1.28179,2.285576 -0.51531,0.314195 -0.92335,0.363272 -3.02511,0.363862 l -2.42946,7.86e-4 0.5104,-0.639679 z m 9.48252,-1.1423 c -0.31701,-1.782116 -0.80082,-3.177381 -1.18382,-3.414083 -0.45923,-0.283827 -0.13005,-0.376401 1.21289,-0.341107 0.77909,0.02048 2.02012,0.04105 2.75784,0.0457 l 1.3413,0.0082 -0.46053,0.547315 c -0.53099,0.631049 -0.5455,0.673208 -0.94272,2.74249 -0.45074,2.34807 -0.34873,2.193208 -1.44475,2.193208 l -0.96322,0 -0.31699,-1.78198 z m 3.91357,1.644904 c 4e-4,-0.07539 0.15879,-0.952404 0.35215,-1.94891 0.35921,-1.85154 0.65515,-2.447245 1.54575,-3.111584 1.04975,-0.783067 3.58449,-0.200664 3.58449,0.823604 0,0.30941 -0.13462,0.353088 -1.08831,0.353088 -1.08613,0 -1.08854,0.0012 -1.20125,0.602036 -0.15041,0.801733 -0.0407,2.004853 0.18955,2.080256 0.11103,0.03633 0.18386,-0.390384 0.18278,-1.070644 l -0.002,-1.131071 1.16575,0.01533 c 1.32991,0.01748 1.53395,0.18895 1.36728,1.148999 -0.13745,0.791846 -0.82595,1.738873 -1.52818,2.102011 -0.55949,0.289333 -4.5694,0.409486 -4.56819,0.136885 z m 7.03915,-0.09138 c -0.0424,-0.125653 -0.10128,-1.05757 -0.13134,-2.070924 -0.05,-1.685281 -0.0975,-1.898633 -0.55727,-2.500853 -0.27643,-0.362115 -0.50263,-0.684435 -0.50266,-0.716274 -4e-5,-0.03184 1.12169,-0.04487 2.49272,-0.02895 2.75602,0.03201 3.03402,0.128537 3.85848,1.339953 0.35774,0.525634 0.41124,0.838395 0.41124,2.404855 l 0,1.800644 -1.27937,0 c -1.24283,0 -1.27938,-0.01306 -1.27938,-0.456919 0,-0.251304 -0.0821,-0.456918 -0.18276,-0.456918 -0.10052,0 -0.18277,0.205614 -0.18277,0.456918 0,0.444058 -0.0361,0.456919 -1.2851,0.456919 -0.86537,0 -1.31015,-0.07463 -1.36179,-0.22846 z M 70.161386,38.896948 c 0,-0.217649 0.176295,-0.643302 0.391765,-0.945902 0.578869,-0.812947 0.598132,-1.537554 0.06504,-2.44718 -0.47897,-0.817297 -0.569206,-1.263064 -0.290546,-1.435287 0.354748,-0.219247 0.752055,0.15151 0.939524,0.876746 0.107771,0.41688 0.365058,0.993877 0.571761,1.282214 0.295985,0.412881 0.325107,0.555583 0.137104,0.671777 -0.131292,0.08113 -0.408291,0.626561 -0.615554,1.212041 -0.291365,0.823038 -0.470112,1.077758 -0.787976,1.122913 -0.317725,0.04512 -0.411133,-0.03151 -0.411133,-0.337322 z m 31.228424,-1.204433 c -0.33148,-1.207817 -0.5226,-1.60928 -0.82035,-1.722999 -0.2135,-0.08154 -0.598364,-0.524348 -0.855267,-0.984 l -0.46711,-0.835743 3.368327,0 c 1.85258,0 3.36831,0.03076 3.36831,0.06836 0,0.292233 -0.99832,1.759304 -1.19717,1.759304 -0.33794,0 -0.52175,0.391553 -0.92236,1.964745 l -0.33741,1.325062 -0.85238,0 -0.8524,0 -0.43219,-1.574733 z m 4.85416,1.224564 c 0.1896,-0.209493 0.55816,-0.382019 0.81899,-0.383391 0.75622,-0.004 1.29674,-0.202283 1.29674,-0.475741 0,-0.158415 -0.20236,-0.252836 -0.54187,-0.252836 -0.69086,0 -0.92651,-0.429904 -0.75283,-1.373309 0.34832,-1.892143 1.01501,-2.280433 3.9171,-2.281346 l 2.16542,-7.87e-4 -0.37451,0.593993 c -0.30228,0.479407 -0.5234,0.611621 -1.14606,0.685376 -0.90768,0.107512 -1.14184,0.485426 -0.40165,0.648207 0.91096,0.200342 0.97251,0.246281 0.97251,0.725887 0,0.6046 -0.3828,1.336471 -1.00201,1.915714 -0.46134,0.431545 -0.62194,0.460306 -2.89249,0.517972 l -2.40404,0.06106 0.3447,-0.380897 z M 75.964239,36.928094 c -0.447335,-0.03843 -0.68537,-0.150266 -0.68537,-0.322 0,-0.22403 0.962271,-0.263117 6.477443,-0.263117 6.131173,0 7.039293,0.06894 6.606686,0.501553 -0.114743,0.114745 -11.168597,0.189242 -12.398759,0.08357 z m 15.398127,-0.333347 c 0,-0.238893 0.05176,-0.253596 0.266146,-0.07564 0.146382,0.121481 0.3647,0.159966 0.485161,0.08551 0.138553,-0.08563 0.171092,-0.05784 0.08861,0.07565 -0.198561,0.321266 -0.839908,0.255957 -0.839908,-0.08552 z m 57.836984,-4.351773 c -0.33575,-0.512419 -0.14791,-1.054605 0.48214,-1.391805 0.82951,-0.44394 1.72189,0.938874 1.0436,1.617145 -0.38245,0.382469 -1.20729,0.260645 -1.52574,-0.22534 z M 15.712322,27.508686 c -0.221318,-0.116972 -1.738704,-1.816303 -3.371977,-3.776292 -1.633274,-1.959988 -3.2364033,-3.743418 -3.5625083,-3.96318 -1.1169703,-0.752727 -4.063821,-0.772095 -5.2677581,-0.03463 -1.0570921,0.64752 -1.3380294,1.572965 -1.3380294,4.407645 0,2.750795 -0.1124769,3.062391 -1.105444,3.062391 -1.10261744,0 -1.10450604,-0.01595 -1.04770204,-8.837348 L 0.07022822,10.396795 0.66781146,9.7994348 1.2653947,9.2020729 l 6.6217146,0 6.6217157,0 0.972968,0.5389709 c 1.740053,0.9638972 2.592102,2.4235372 2.589205,4.4355602 -0.0037,2.628506 -1.678404,4.560696 -4.326217,4.99164 -1.057103,0.172048 -1.520545,0.424108 -1.520545,0.827003 0,0.131622 0.723959,1.087929 1.608799,2.125132 2.934981,3.440367 3.32591,3.971733 3.32591,4.520677 0,0.788185 -0.748055,1.236841 -1.446623,0.867626 z m -1.853827,-10.53596 c 0.847809,-0.243147 1.804727,-1.210006 2.031655,-2.052764 0.350605,-1.302033 -0.385928,-2.861425 -1.588909,-3.364063 -0.898896,-0.375583 -10.2866928,-0.363572 -11.0170199,0.01408 -0.7269051,0.375898 -1.1122997,1.307165 -1.1114875,2.685796 8.131e-4,1.380886 0.4337792,2.236951 1.3279771,2.62568 0.7101007,0.308703 9.3346543,0.384685 10.3577843,0.09126 z m 9.043027,10.022713 c -0.209065,-0.101444 -0.517483,-0.416985 -0.685376,-0.701204 -0.272142,-0.4607 -0.305257,-1.351088 -0.305257,-8.207584 l 0,-7.690823 0.533175,-0.5968769 0.533173,-0.5968764 7.919802,-0.052696 c 4.35589,-0.028972 8.10248,-0.00751 8.325753,0.047844 0.89983,0.2228689 0.993257,1.502945 0.138134,1.892564 -0.3301,0.150404 -2.345478,0.214103 -6.774045,0.214103 -5.829123,0 -6.355348,0.02612 -6.983675,0.346669 -1.95879,0.9993 -1.945092,4.016615 0.02314,5.093407 0.506373,0.277033 1.271753,0.324153 6.059537,0.373037 5.89018,0.06014 6.1297,0.100166 6.122954,1.023286 -0.0068,0.933787 0.04574,0.924794 -5.975872,1.022583 -5.2569,0.08537 -5.669109,0.116099 -6.26662,0.467105 -1.383083,0.81248 -1.835803,2.610067 -1.011553,4.016537 0.795082,1.356704 0.8439,1.3649 8.129602,1.3649 l 6.423227,0 0.448607,0.448613 c 0.533316,0.533315 0.572513,1.02751 0.114376,1.442114 -0.30078,0.272205 -1.137622,0.301242 -8.36159,0.290109 -5.001072,-0.0078 -8.170665,-0.08189 -8.40748,-0.196812 z m 21.609422,-0.125047 c -0.272161,-0.300737 -0.302478,-1.170759 -0.302478,-8.681433 0,-8.103509 0.01071,-8.3578714 0.365536,-8.7127323 0.460727,-0.4607239 1.113431,-0.4670785 1.670349,-0.016269 l 0.431474,0.3492696 0.05104,8.2093256 c 0.0504,8.103865 0.04612,8.215598 -0.333105,8.697695 -0.464484,0.590494 -1.417327,0.668502 -1.882818,0.15414 z m 6.679225,0.114914 c -0.164325,-0.164324 -0.21932,-2.360886 -0.21932,-8.75976 0,-9.8529327 -0.12958,-9.1658015 1.711822,-9.0773322 l 1.121067,0.053862 4.716628,5.5735181 c 2.594142,3.065434 4.897006,5.673801 5.117478,5.796373 0.553817,0.307906 1.503063,0.289556 2.143116,-0.04143 1.025397,-0.530247 1.090621,-0.8878 1.090621,-5.978471 0,-3.893777 0.04521,-4.693484 0.284514,-5.0351697 0.355224,-0.507148 1.058151,-0.525672 1.543157,-0.040668 0.354905,0.3549031 0.365534,0.6092227 0.365534,8.7444917 0,9.677516 0.137875,8.983908 -1.785837,8.983908 l -1.117375,0 -0.817887,-0.959527 c -0.449835,-0.527742 -2.59665,-3.076427 -4.770696,-5.663747 -2.174042,-2.587322 -4.10819,-4.78738 -4.298105,-4.889018 -1.137174,-0.608596 -2.744397,0.129743 -3.104466,1.426163 -0.104098,0.374793 -0.187543,2.664136 -0.18811,5.160557 -0.0012,3.244958 -0.06173,4.547638 -0.220343,4.706252 -0.120625,0.120627 -0.474282,0.21932 -0.7859,0.21932 -0.311616,0 -0.665272,-0.0987 -0.785898,-0.21932 z m 44.083416,-0.402088 -0.621415,-0.621408 0,-8.138351 c 0,-8.8274955 -0.01293,-8.7127671 0.989939,-8.7127671 0.983101,0 0.998441,0.1047881 1.057415,7.2239921 0.05163,6.250179 0.07293,6.606481 0.429884,7.213979 0.206476,0.351486 0.650418,0.824396 0.986557,1.05091 0.605856,0.408287 0.667857,0.41185 7.172025,0.41185 l 6.56091,0 0.44859,0.448608 c 0.52276,0.522755 0.55445,0.781113 0.16411,1.338391 l -0.28449,0.406205 -8.14107,0 -8.141049,0 -0.621406,-0.621409 z m 21.760055,0.01081 -0.63219,-0.632211 0,-7.612184 c 0,-8.3517382 0.007,-8.4007951 1.09062,-8.9616889 0.76873,-0.3975248 8.59206,-0.4010971 10.11422,-0.00465 3.31394,0.8631699 6.02999,3.6887759 6.71431,6.9851309 0.27092,1.305006 0.14989,3.292163 -0.28333,4.65207 -0.74186,2.328648 -2.9988,4.725109 -5.33152,5.661086 -1.00875,0.404753 -1.32371,0.430034 -6.05201,0.485789 l -4.98789,0.05881 -0.63221,-0.632203 z m 11.29076,-2.165281 c 1.33739,-0.626791 2.66372,-1.953107 3.34914,-3.349131 0.48574,-0.989348 0.53726,-1.269504 0.53721,-2.921936 -2e-5,-1.650637 -0.0519,-1.933507 -0.5356,-2.920289 -0.68221,-1.391769 -1.91087,-2.620441 -3.30479,-3.304828 -1.09427,-0.53727 -1.0943,-0.537276 -4.56685,-0.537276 -3.29942,0 -3.50105,0.02034 -4.04403,0.407629 -1.1288,0.805179 -1.18762,1.148711 -1.12753,6.582828 0.0522,4.712782 0.0687,4.909931 0.45948,5.457748 0.76571,1.07343 1.23144,1.180542 4.89485,1.125753 3.13662,-0.04691 3.33863,-0.07207 4.33812,-0.540507 z m 19.0844,2.441666 c -0.37292,-0.412059 -0.37831,-0.920695 -0.0149,-1.402055 0.26502,-0.35102 0.54601,-0.369162 7.07641,-0.456917 6.23069,-0.08372 6.84228,-0.119766 7.29982,-0.430139 1.7627,-1.195694 1.64141,-3.854688 -0.22585,-4.951604 -0.60226,-0.353793 -1.00333,-0.380681 -6.96257,-0.4668 -6.8303,-0.09871 -6.67257,-0.07422 -7.21332,-1.119907 -0.20112,-0.38893 -0.26059,-1.306198 -0.25562,-3.942804 0.009,-3.724405 0.0702,-4.013454 1.01107,-4.6337505 0.50909,-0.3355975 0.93559,-0.3533782 8.50371,-0.3545214 7.48777,-9.887e-4 7.98594,0.018925 8.2702,0.3330265 0.43172,0.4770448 0.38183,1.2343654 -0.10371,1.5744594 -0.3492,0.244581 -1.32014,0.284514 -6.91813,0.284514 -6.47064,0 -6.51582,0.0026 -7.12858,0.415575 -1.05852,0.713341 -1.49259,1.534356 -1.40275,2.653351 0.0882,1.099295 0.5059,1.774754 1.43615,2.322701 0.57942,0.341278 1.04177,0.3716 6.96795,0.456919 l 6.34736,0.09139 0.5064,0.506364 0.50641,0.506362 0.056,3.842302 0.0559,3.842303 -0.63174,0.631735 -0.63172,0.631724 -8.12308,0 c -7.63742,0 -8.14118,-0.01998 -8.42556,-0.334234 z m -9.23813,-16.231069 c -0.64715,-0.453284 -0.44456,-1.539693 0.45982,-2.465863 0.38005,-0.3892233 0.77056,-0.7076802 0.86775,-0.7076802 0.0972,0 0.73049,-0.5345939 1.40728,-1.1879859 0.67679,-0.6533923 1.34359,-1.1879856 1.48179,-1.1879856 0.54247,0 1.06368,0.5632838 1.06368,1.1495621 0,0.4974471 -0.29748,0.8752551 -2.07841,2.6397612 -1.18726,1.1762764 -2.22775,2.0592124 -2.42671,2.0592124 -0.19155,0 -0.5404,-0.134565 -0.7752,-0.299034 z M 44.574002,7.2830211 C 44.042831,6.7518479 44.100859,5.9320598 44.703169,5.458285 45.583138,4.7660997 46.58444,5.3126402 46.58444,6.4851375 c 0,1.0439064 -1.263121,1.5452023 -2.010438,0.7978836 z"
     id="path3376"
     inkscape:connector-curvature="0" />
</svg>
