<?xml version="1.0" encoding="UTF-8" standalone="no"?>
<!-- Created with Inkscape (http://www.inkscape.org/) -->

<svg
   xmlns:dc="http://purl.org/dc/elements/1.1/"
   xmlns:cc="http://creativecommons.org/ns#"
   xmlns:rdf="http://www.w3.org/1999/02/22-rdf-syntax-ns#"
   xmlns:svg="http://www.w3.org/2000/svg"
   xmlns="http://www.w3.org/2000/svg"
   xmlns:sodipodi="http://sodipodi.sourceforge.net/DTD/sodipodi-0.dtd"
   xmlns:inkscape="http://www.inkscape.org/namespaces/inkscape"
   id="svg3364"
   version="1.1"
   inkscape:version="0.91 r13725"
   width="197.5096"
   height="50"
   viewBox="0 0 197.5096 50.000001"
   sodipodi:docname="site-logo.svg">
  <metadata
     id="metadata3370">
    <rdf:RDF>
      <cc:Work
         rdf:about="">
        <dc:format>image/svg+xml</dc:format>
        <dc:type
           rdf:resource="http://purl.org/dc/dcmitype/StillImage" />
        <dc:title></dc:title>
      </cc:Work>
    </rdf:RDF>
  </metadata>
  <defs
     id="defs3368" />
  <sodipodi:namedview
     pagecolor="#ffffff"
     bordercolor="#666666"
     borderopacity="1"
     objecttolerance="10"
     gridtolerance="10"
     guidetolerance="10"
     inkscape:pageopacity="0"
     inkscape:pageshadow="2"
     inkscape:window-width="2560"
     inkscape:window-height="1331"
     id="namedview3366"
     showgrid="false"
     inkscape:zoom="6.0531165"
     inkscape:cx="103.08149"
     inkscape:cy="11.100722"
     inkscape:window-x="0"
     inkscape:window-y="1"
     inkscape:window-maximized="1"
     inkscape:current-layer="svg3364"
     fit-margin-top="0"
     fit-margin-left="0"
     fit-margin-right="0"
     fit-margin-bottom="0"
     showborder="false" />
  <path
     style="fill:#000000"
     d="m 86.713265,29.836041 c 0,-21.9381302 -0.03174,-21.3224706 1.233813,-23.9346461 0.854977,-1.7647442 2.895071,-3.8173942 4.683046,-4.7118817 1.994896,-0.9980058 3.582725,-1.3086158 5.881335,-1.1505033 5.142541,0.3537392 9.032931,3.8991617 9.955691,9.0728987 0.23647,1.3258084 0.29944,5.7118234 0.30549,21.2790644 L 108.78094,50 l -1.30441,0 -1.30441,0 -0.0636,-20.264483 C 106.03748,7.0862928 106.13348,8.469519 104.46495,6.0737241 101.10203,1.2451857 93.491707,1.5700532 90.503099,6.6697237 89.322758,8.6838253 89.34123,8.3145355 89.338427,29.953998 L 89.335927,50 l -1.310914,0 -1.310914,0 0,-20.163959 z m 59.258905,17.057528 c -0.46902,-0.469014 -0.50507,-0.472534 -1.12008,-0.10925 -1.02384,0.604804 -1.9213,0.485947 -2.7747,-0.367481 -0.85377,-0.853749 -0.95582,-1.633761 -0.3453,-2.639098 0.38813,-0.639111 0.38607,-0.664457 -0.11369,-1.401089 -0.56698,-0.835477 -0.50945,-1.434277 0.19641,-2.044621 1.41525,-1.223711 3.04078,0.926529 1.74398,2.306906 l -0.47053,0.500845 1.06374,1.047725 c 0.65445,0.644611 1.12065,0.955598 1.21169,0.808282 0.2649,-0.428599 0.57073,-0.252295 0.44323,0.255531 -0.0914,0.363929 0.0502,0.661988 0.5343,1.125858 0.36218,0.346991 0.60707,0.714165 0.54417,0.815942 -0.18003,0.29127 -0.39169,0.221834 -0.91308,-0.299557 z m -1.48748,-0.521947 c 0.5663,-0.217307 0.40477,-0.590236 -0.74703,-1.724709 -0.95037,-0.936063 -1.13221,-1.034571 -1.3967,-0.756484 -0.5394,0.567159 -0.58145,1.16759 -0.13332,1.904468 0.35188,0.578608 0.56961,0.709342 1.18142,0.709342 0.41253,0 0.90555,-0.05966 1.09563,-0.132617 z m -1.301,-4.228281 c 0.53565,-0.591891 0.29605,-1.538196 -0.38947,-1.538196 -0.96711,0 -1.32068,0.837994 -0.66113,1.566813 0.45525,0.503025 0.57235,0.499835 1.0506,-0.02862 z m -31.78162,2.981518 c 0,-1.82387 -0.0699,-2.193313 -0.62166,-3.287258 l -0.62166,-1.232456 2.20567,0.0011 c 1.21314,6.89e-4 2.57962,0.105054 3.03666,0.231971 1.16696,0.324058 2.10345,1.234736 2.33629,2.271914 0.23512,1.047337 -0.009,1.427627 -0.91814,1.427627 -0.81349,0 -0.71393,0.457897 0.14983,0.688894 0.74046,0.198029 0.97972,0.521861 0.98422,1.332093 0.005,0.59855 -0.002,0.600831 -1.52605,0.600831 l -1.52939,0 0,-0.655451 c 0,-0.621752 -0.40886,-0.96 -0.46218,-0.38235 -0.0139,0.150207 -0.0384,0.420582 -0.0546,0.600835 -0.0222,0.248918 -0.38404,0.34326 -1.5042,0.392328 l -1.47476,0.06459 0,-2.054802 z m 3.6437,-2.247672 c 0.16756,-0.436654 -0.36385,-0.798273 -0.72844,-0.495691 -0.33062,0.274381 -0.13945,0.84547 0.28301,0.84547 0.17117,0 0.37161,-0.157404 0.44543,-0.349779 z m 36.70323,4.136852 c -0.0802,-0.08012 -0.14568,-1.068176 -0.14568,-2.195704 0,-2.061651 -0.22883,-2.901831 -1.04339,-3.830841 -0.18441,-0.210292 -0.29542,-0.386006 -0.24676,-0.39047 1.1848,-0.108736 5.70467,0.03162 6.11619,0.189909 0.68863,0.264886 1.67925,1.402936 1.86481,2.142337 0.20458,0.815035 -0.0525,2.26587 -0.50967,2.878436 -0.7589,1.016457 -1.72726,1.35199 -3.90188,1.35199 -1.0934,0 -2.05354,-0.06556 -2.13362,-0.145657 z m 3.52394,-2.80587 c -0.0787,-1.732205 -0.4759,-1.977947 -0.56863,-0.351793 -0.0733,1.285584 0.0363,1.773923 0.39791,1.773923 0.1506,0 0.21207,-0.511867 0.17072,-1.42213 z m 3.10341,2.745935 c 0,-0.113075 0.0991,-0.266786 0.22004,-0.341582 0.43986,-0.271842 0.87516,-1.426153 1.07802,-2.858647 0.17105,-1.207798 0.33293,-1.594102 0.92325,-2.203158 2.19555,-2.265234 5.68058,-0.892084 5.68058,2.238225 0,1.255971 -0.12203,1.404386 -1.15463,1.404386 -0.52699,0 -0.82034,0.08676 -0.73891,0.218487 0.0741,0.120166 0.32587,0.218484 0.55911,0.218484 0.66024,0 0.49933,0.615984 -0.286,1.094822 -0.60963,0.371689 -1.10417,0.433058 -3.49576,0.433758 -1.59557,4.83e-4 -2.7857,-0.08702 -2.7857,-0.204775 z m 5.02516,-4.289373 c 0,-0.203459 -0.14866,-0.314917 -0.36426,-0.273106 -0.5481,0.106309 -0.62337,0.616856 -0.0908,0.616856 0.26835,0 0.45516,-0.141073 0.45516,-0.34375 z m 2.99486,3.730275 c 0.54954,-0.688768 0.71752,-0.764696 1.69167,-0.764701 1.15743,-6e-6 1.16547,-0.34896 0.0119,-0.474785 -0.65023,-0.07085 -0.65544,-0.08222 -0.65384,-1.424305 8.4e-4,-1.200837 0.0752,-1.43098 0.65547,-2.047896 1.03532,-1.100571 1.63749,-1.247204 4.63802,-1.129452 l 2.6733,0.104934 -0.54635,0.68326 c -0.3005,0.375793 -0.64708,0.806158 -0.77017,0.956366 -0.1231,0.150207 -0.58371,0.273106 -1.02358,0.273106 -0.87699,0 -0.75745,0.350065 0.16155,0.47309 0.46711,0.06256 0.55483,0.199697 0.60572,0.947063 0.0723,1.062623 -0.51672,2.113047 -1.53229,2.732244 -0.61602,0.375598 -1.1038,0.434266 -3.61631,0.434971 l -2.90424,9.16e-4 0.61014,-0.76469 z m 11.33568,-1.365539 c -0.37896,-2.130393 -0.95732,-3.798334 -1.41517,-4.081294 -0.54898,-0.339295 -0.15547,-0.449961 1.44992,-0.407769 0.93135,0.02448 2.41491,0.04907 3.29681,0.05463 l 1.60342,0.0098 -0.55053,0.654277 c -0.63476,0.754374 -0.6521,0.804773 -1.12695,3.278453 -0.53883,2.80695 -0.41688,2.621823 -1.7271,2.621823 l -1.15146,0 -0.37894,-2.13023 z m 4.6784,1.966366 c 4.8e-4,-0.09012 0.18982,-1.138531 0.42097,-2.329784 0.42941,-2.213384 0.78318,-2.925507 1.84783,-3.719678 1.2549,-0.936101 4.28501,-0.239879 4.28501,0.984561 0,0.369877 -0.16093,0.422091 -1.301,0.422091 -1.29839,0 -1.30127,0.0014 -1.43601,0.719692 -0.17981,0.958414 -0.0487,2.396659 0.22659,2.486798 0.13273,0.04343 0.21979,-0.466676 0.2185,-1.279879 l -0.002,-1.352115 1.39356,0.01833 c 1.58983,0.0209 1.83374,0.225876 1.63449,1.373547 -0.1643,0.946595 -0.98735,2.078699 -1.82683,2.512805 -0.66882,0.345878 -5.46238,0.489511 -5.46095,0.163636 z m 8.4148,-0.109238 c -0.0507,-0.15021 -0.12107,-1.26425 -0.15701,-2.475643 -0.0598,-2.014634 -0.11655,-2.269681 -0.66617,-2.989592 -0.33046,-0.432883 -0.60086,-0.818194 -0.6009,-0.856255 -4e-5,-0.03806 1.3409,-0.05364 2.97987,-0.03461 3.29463,0.03827 3.62696,0.153656 4.61254,1.601819 0.42765,0.628357 0.49161,1.002241 0.49161,2.874834 l 0,2.152542 -1.5294,0 c -1.48571,0 -1.5294,-0.01561 -1.5294,-0.546215 0,-0.300416 -0.0982,-0.546214 -0.21848,-0.546214 -0.12016,0 -0.21849,0.245798 -0.21849,0.546214 0,0.53084 -0.0431,0.546215 -1.53624,0.546215 -1.03449,0 -1.5662,-0.08921 -1.62793,-0.273109 z M 83.872959,46.498542 c 0,-0.260184 0.210747,-0.769022 0.468326,-1.130759 0.691997,-0.971821 0.715025,-1.838037 0.07775,-2.92543 -0.572575,-0.977021 -0.680445,-1.509904 -0.347326,-1.715784 0.424076,-0.262094 0.899027,0.18112 1.123133,1.048088 0.128833,0.49835 0.436402,1.188109 0.6835,1.532796 0.353829,0.49357 0.388643,0.66416 0.163898,0.803061 -0.15695,0.09699 -0.488083,0.74901 -0.73585,1.448909 -0.348306,0.983884 -0.561986,1.288384 -0.94197,1.342363 -0.379818,0.05394 -0.49148,-0.03767 -0.49148,-0.403244 z m 37.331361,-1.439815 c -0.39626,-1.443859 -0.62473,-1.92378 -0.98067,-2.059723 -0.25522,-0.09747 -0.7153,-0.62682 -1.02241,-1.176302 l -0.55839,-0.999071 4.02659,0 c 2.21463,0 4.02658,0.03677 4.02658,0.08172 0,0.349345 -1.19342,2.103124 -1.43113,2.103124 -0.40399,0 -0.62372,0.468074 -1.10262,2.348714 l -0.40335,1.584017 -1.01896,0 -1.01898,0 -0.51666,-1.882481 z m 5.80282,1.46388 c 0.22665,-0.250434 0.66723,-0.456677 0.97903,-0.458317 0.90402,-0.0048 1.55017,-0.241815 1.55017,-0.568714 0,-0.189374 -0.2419,-0.302248 -0.64777,-0.302248 -0.82588,0 -1.10758,-0.51392 -0.89996,-1.641693 0.41639,-2.261923 1.21338,-2.726096 4.68263,-2.727188 l 2.5886,-9.17e-4 -0.4477,0.710077 c -0.36135,0.573097 -0.6257,0.731149 -1.37004,0.819318 -1.08506,0.128523 -1.36499,0.580293 -0.48015,0.774886 1.08899,0.239494 1.16257,0.294411 1.16257,0.867746 0,0.722757 -0.45761,1.597656 -1.19783,2.2901 -0.5515,0.515882 -0.74349,0.550264 -3.45777,0.619199 l -2.87386,0.07299 0.41208,-0.455335 z M 90.809857,44.144916 c -0.534757,-0.04594 -0.819311,-0.179632 -0.819311,-0.384928 0,-0.267812 1.150327,-0.314537 7.743324,-0.314537 7.32938,0 8.41498,0.08241 7.89782,0.599571 -0.13716,0.137169 -13.351261,0.226225 -14.821833,0.0999 z m 18.407373,-0.398492 c 0,-0.28558 0.0619,-0.303156 0.31816,-0.09042 0.17498,0.145222 0.43597,0.191228 0.57997,0.102222 0.16563,-0.102365 0.20453,-0.06914 0.10593,0.09043 -0.23737,0.384051 -1.00405,0.305978 -1.00405,-0.102233 z m 69.14001,-5.202236 c -0.40137,-0.612561 -0.17682,-1.260706 0.57636,-1.663804 0.99162,-0.530699 2.0584,1.122357 1.24755,1.933182 -0.45719,0.457214 -1.44323,0.311582 -1.82391,-0.269378 z M 18.782965,32.884682 c -0.26457,-0.139831 -2.078497,-2.171261 -4.030959,-4.514289 -1.952464,-2.343026 -3.868891,-4.47499 -4.258726,-4.7377 -1.3352576,-0.899833 -4.8580086,-0.922986 -6.2972306,-0.0414 -1.263678,0.774064 -1.599519,1.880368 -1.599519,5.269027 0,3.28838 -0.134458,3.660871 -1.32148,3.660871 -1.31810102,0 -1.32035802,-0.01907 -1.25245302,-10.564422 l 0.06135,-9.528139 0.714369,-0.714101 0.71436802,-0.714104 7.91579,0 7.9157906,0 1.163114,0.644301 c 2.08011,1.152271 3.098674,2.897167 3.095211,5.302398 -0.0044,3.142193 -2.006413,5.451989 -5.171685,5.967152 -1.263692,0.205671 -1.817704,0.506991 -1.817704,0.988623 0,0.157345 0.865441,1.300542 1.923205,2.540445 3.508561,4.112714 3.975889,4.747925 3.975889,5.404148 0,0.94222 -0.894246,1.478556 -1.729335,1.037186 z M 16.566847,20.289689 c 1.013495,-0.290665 2.157423,-1.446477 2.428699,-2.453934 0.419123,-1.556488 -0.46135,-3.42063 -1.899428,-4.021498 -1.074566,-0.448983 -12.2970106,-0.434625 -13.1700646,0.01683 -0.868964,0.449359 -1.329676,1.562623 -1.328705,3.210678 10e-4,1.650752 0.518552,2.674117 1.587503,3.138815 0.848875,0.369032 11.1589156,0.459863 12.3819956,0.109095 z m 10.810297,11.981443 c -0.249923,-0.121269 -0.618614,-0.498476 -0.819319,-0.83824 -0.325326,-0.550734 -0.364913,-1.615129 -0.364913,-9.811585 l 0,-9.193833 0.637373,-0.713524 0.637371,-0.713523 9.46756,-0.06299 c 5.207159,-0.03463 9.685941,-0.009 9.952848,0.05719 1.075683,0.266424 1.187368,1.796664 0.165129,2.262426 -0.394611,0.179797 -2.803852,0.255945 -8.097891,0.255945 -6.968302,0 -7.597366,0.03123 -8.348487,0.414418 -2.341594,1.194592 -2.325219,4.801578 0.02766,6.088806 0.605333,0.331173 1.52029,0.387502 7.243745,0.445939 7.041294,0.07189 7.327624,0.119742 7.319559,1.223266 -0.0081,1.116276 0.05468,1.105526 -7.143733,1.222426 -6.28425,0.102053 -6.777016,0.138788 -7.491298,0.55839 -1.653378,0.971264 -2.194573,3.120151 -1.20924,4.801486 0.950464,1.621844 1.008822,1.631642 9.718361,1.631642 l 7.678513,0 0.536278,0.536285 c 0.637542,0.63754 0.684399,1.228315 0.136729,1.723945 -0.359562,0.325401 -1.359947,0.360113 -9.995689,0.346804 -5.978425,-0.0093 -9.767447,-0.09789 -10.050543,-0.235274 z m 25.832531,-0.149485 c -0.32535,-0.35951 -0.361591,-1.399559 -0.361591,-10.378038 0,-9.68717 0.0128,-9.991242 0.436972,-10.415453 0.550766,-0.550763 1.331028,-0.558359 1.996784,-0.01945 l 0.515795,0.417527 0.06101,9.813666 c 0.06025,9.687595 0.05513,9.821164 -0.398202,10.397477 -0.555259,0.705894 -1.694315,0.799147 -2.250777,0.184263 z m 7.984539,0.137372 c -0.196439,-0.196438 -0.262181,-2.822272 -0.262181,-10.471673 0,-11.778481 -0.154904,-10.957065 2.046361,-10.851306 l 1.340157,0.06439 5.638394,6.662746 c 3.101112,3.664509 5.854024,6.782627 6.117582,6.929153 0.662048,0.36808 1.796805,0.346144 2.561943,-0.04953 1.22579,-0.633871 1.30376,-1.061301 1.30376,-7.146838 0,-4.654734 0.05405,-5.610727 0.340116,-6.019188 0.424645,-0.606259 1.264944,-0.628403 1.844735,-0.04862 0.424264,0.424262 0.43697,0.728283 0.43697,10.453421 0,11.568784 0.164819,10.739624 -2.134841,10.739624 l -1.335743,0 -0.977726,-1.147048 c -0.537746,-0.630878 -3.104111,-3.67765 -5.703029,-6.770608 -2.598913,-3.09296 -4.911049,-5.722973 -5.138079,-5.844474 -1.359412,-0.727533 -3.280732,0.155098 -3.711169,1.704876 -0.124443,0.448039 -0.224195,3.184786 -0.224873,6.169081 -0.0014,3.879117 -0.07379,5.436378 -0.263405,5.62599 -0.144197,0.144201 -0.56697,0.262182 -0.939486,0.262182 -0.372515,0 -0.795286,-0.117989 -0.939486,-0.262182 z m 52.698596,-0.480668 -0.74286,-0.742849 0,-9.728822 c 0,-10.552644 -0.0155,-10.415495 1.18341,-10.415495 1.17522,0 1.19356,0.125267 1.26406,8.63577 0.0617,7.471646 0.0872,7.89758 0.5139,8.623801 0.24682,0.420176 0.77752,0.985507 1.17936,1.256288 0.72425,0.488078 0.79837,0.492338 8.57364,0.492338 l 7.8431,0 0.53627,0.536279 c 0.62491,0.624916 0.6628,0.933765 0.19617,1.599951 l -0.34007,0.485589 -9.73209,0 -9.73204,0 -0.74285,-0.74285 z m 26.0126,0.01292 -0.75572,-0.755764 0,-9.099826 c 0,-9.98391 0.008,-10.042554 1.30375,-10.713063 0.91896,-0.475212 10.27119,-0.479483 12.09083,-0.0056 3.96158,1.031859 7.20842,4.40967 8.02648,8.350229 0.32386,1.560042 0.17918,3.935547 -0.3387,5.561219 -0.88684,2.783734 -3.58486,5.648533 -6.37346,6.767428 -1.20589,0.483853 -1.5824,0.514075 -7.23475,0.580725 l -5.96265,0.0703 -0.75578,-0.755754 z m 13.49731,-2.58844 c 1.59875,-0.749284 3.18428,-2.3348 4.00366,-4.003649 0.58066,-1.182695 0.64225,-1.517601 0.64219,-3.492967 -2e-5,-1.973219 -0.062,-2.31137 -0.64027,-3.490998 -0.81553,-1.663765 -2.28431,-3.132555 -3.95064,-3.950691 -1.30812,-0.642269 -1.30816,-0.642276 -5.45935,-0.642276 -3.94422,0 -4.18525,0.02432 -4.83435,0.487292 -1.3494,0.962534 -1.41971,1.373202 -1.34787,7.869304 0.0624,5.633796 0.0821,5.869475 0.54927,6.524351 0.91535,1.283209 1.47209,1.411254 5.85144,1.345758 3.74961,-0.05608 3.9911,-0.08616 5.18592,-0.646138 z m 22.81404,2.918839 c -0.4458,-0.492588 -0.45224,-1.100625 -0.0178,-1.676058 0.31681,-0.419618 0.65272,-0.441306 8.45935,-0.546211 7.44834,-0.100081 8.17945,-0.143172 8.7264,-0.5142 2.1072,-1.429369 1.9622,-4.608006 -0.26997,-5.919293 -0.71996,-0.422934 -1.19941,-0.455077 -8.32326,-0.558026 -8.16514,-0.118001 -7.97659,-0.08873 -8.62302,-1.338769 -0.24042,-0.464939 -0.31151,-1.561467 -0.30557,-4.713343 0.0108,-4.452262 0.0839,-4.797799 1.20866,-5.53932 0.60858,-0.401183 1.11843,-0.422438 10.16558,-0.423805 8.9511,-0.0012 9.54663,0.02262 9.88643,0.39811 0.5161,0.570273 0.45645,1.475596 -0.12397,1.882154 -0.41744,0.292379 -1.57813,0.340117 -8.27013,0.340117 -7.7352,0 -7.7892,0.0031 -8.52171,0.49679 -1.26539,0.852749 -1.78429,1.834214 -1.67689,3.171893 0.10544,1.314129 0.60477,2.121592 1.71682,2.776624 0.69265,0.407974 1.24536,0.444221 8.32968,0.546214 l 7.58782,0.10925 0.60537,0.605323 0.60538,0.60532 0.0669,4.5932 0.0668,4.593201 -0.7552,0.755194 -0.75517,0.755181 -9.71057,0 c -9.12999,0 -9.7322,-0.02388 -10.07216,-0.399554 z M 165.17323,12.71858 c -0.77362,-0.541869 -0.53144,-1.840593 0.54969,-2.947764 0.45432,-0.4652887 0.92115,-0.8459814 1.03733,-0.8459814 0.11619,0 0.87325,-0.6390691 1.6823,-1.4201528 0.80906,-0.7810839 1.60617,-1.4201519 1.77138,-1.4201519 0.64848,0 1.27155,0.6733655 1.27155,1.3742193 0,0.5946626 -0.35562,1.0463053 -2.48459,3.1556468 -1.41929,1.406155 -2.66312,2.461643 -2.90096,2.461643 -0.22898,0 -0.64601,-0.160863 -0.9267,-0.357474 z M 53.285056,8.7063344 c -0.634977,-0.6349799 -0.565609,-1.6149784 0.15441,-2.1813423 1.05194,-0.827458 2.248925,-0.174108 2.248925,1.2275291 0,1.2479161 -1.509971,1.8471797 -2.403335,0.9538132 z"
     id="path3376"
     inkscape:connector-curvature="0" />
</svg>
