<?xml version="1.0" encoding="UTF-8" standalone="no"?>
<!-- Created with Inkscape (http://www.inkscape.org/) -->

<svg
   xmlns:dc="http://purl.org/dc/elements/1.1/"
   xmlns:cc="http://creativecommons.org/ns#"
   xmlns:rdf="http://www.w3.org/1999/02/22-rdf-syntax-ns#"
   xmlns:svg="http://www.w3.org/2000/svg"
   xmlns="http://www.w3.org/2000/svg"
   xmlns:sodipodi="http://sodipodi.sourceforge.net/DTD/sodipodi-0.dtd"
   xmlns:inkscape="http://www.inkscape.org/namespaces/inkscape"
   id="svg3364"
   version="1.1"
   inkscape:version="0.91 r13725"
   width="256.76254"
   height="65"
   viewBox="0 0 256.76255 65.000001"
   sodipodi:docname="site-logo.svg">
  <metadata
     id="metadata3370">
    <rdf:RDF>
      <cc:Work
         rdf:about="">
        <dc:format>image/svg+xml</dc:format>
        <dc:type
           rdf:resource="http://purl.org/dc/dcmitype/StillImage" />
        <dc:title></dc:title>
      </cc:Work>
    </rdf:RDF>
  </metadata>
  <defs
     id="defs3368" />
  <sodipodi:namedview
     pagecolor="#ffffff"
     bordercolor="#666666"
     borderopacity="1"
     objecttolerance="10"
     gridtolerance="10"
     guidetolerance="10"
     inkscape:pageopacity="0"
     inkscape:pageshadow="2"
     inkscape:window-width="2560"
     inkscape:window-height="1331"
     id="namedview3366"
     showgrid="false"
     inkscape:zoom="6.0531165"
     inkscape:cx="121.25394"
     inkscape:cy="10.439905"
     inkscape:window-x="0"
     inkscape:window-y="1"
     inkscape:window-maximized="1"
     inkscape:current-layer="svg3364"
     fit-margin-top="0"
     fit-margin-left="0"
     fit-margin-right="0"
     fit-margin-bottom="0"
     showborder="false" />
  <path
     style="fill:#000000"
     d="m 112.72724,38.786853 c 0,-28.519569 -0.0413,-27.719211 1.60396,-31.1150394 1.11147,-2.2941678 3.76359,-4.9626128 6.08796,-6.1254468 2.59337,-1.29740703 4.65754,-1.70120003 7.64574,-1.49565403 6.6853,0.459861 11.74281,5.06891003 12.94239,11.79476823 0.30742,1.723551 0.38928,7.425371 0.39714,27.662784 L 141.41523,65 l -1.69573,0 -1.69573,0 -0.0827,-26.343828 c -0.0924,-29.4439912 0.0324,-27.645797 -2.13665,-30.7603305 -4.37179,-6.2771007 -14.26521,-5.8547727 -18.1504,0.7747995 -1.53444,2.618332 -1.51043,2.138255 -1.51407,30.269556 L 116.13675,65 l -1.70419,0 -1.70419,0 0,-26.213147 z m 77.03658,22.174787 c -0.60973,-0.609718 -0.65659,-0.614294 -1.4561,-0.142025 -1.331,0.786245 -2.49769,0.631731 -3.60711,-0.477726 -1.1099,-1.109873 -1.24257,-2.123889 -0.44889,-3.430827 0.50457,-0.830844 0.50189,-0.863794 -0.1478,-1.821416 -0.73707,-1.08612 -0.66229,-1.86456 0.25533,-2.658007 1.83983,-1.590824 3.95302,1.204488 2.26718,2.998978 l -0.61169,0.651098 1.38286,1.362043 c 0.85078,0.837994 1.45684,1.242277 1.5752,1.050766 0.34437,-0.557178 0.74195,-0.327983 0.5762,0.332191 -0.11882,0.473107 0.0653,0.860584 0.69459,1.463615 0.47083,0.451088 0.78919,0.928415 0.70742,1.060725 -0.23404,0.378651 -0.5092,0.288384 -1.18701,-0.389424 z m -1.93372,-0.678531 c 0.73619,-0.282499 0.5262,-0.767307 -0.97114,-2.242122 -1.23548,-1.216882 -1.47188,-1.344942 -1.81571,-0.983429 -0.70122,0.737306 -0.75589,1.517867 -0.17332,2.475808 0.45745,0.752191 0.74049,0.922145 1.53585,0.922145 0.53629,0 1.17721,-0.07756 1.42432,-0.172402 z m -1.6913,-5.496766 c 0.69634,-0.769458 0.38486,-1.999654 -0.50631,-1.999654 -1.25725,0 -1.71689,1.089392 -0.85947,2.036856 0.59182,0.653933 0.74405,0.649786 1.36578,-0.03721 z m -41.31611,3.875974 c 0,-2.371031 -0.0909,-2.851307 -0.80816,-4.273436 l -0.80816,-1.602192 2.86738,0.0014 c 1.57708,8.95e-4 3.3535,0.13657 3.94765,0.301562 1.51705,0.421275 2.73449,1.605157 3.03718,2.953488 0.30566,1.361538 -0.0117,1.855915 -1.19358,1.855915 -1.05754,0 -0.92811,0.595266 0.19478,0.895562 0.9626,0.257438 1.27363,0.67842 1.27948,1.731721 0.007,0.778115 -0.003,0.781081 -1.98386,0.781081 l -1.98821,0 0,-0.852087 c 0,-0.808277 -0.53152,-1.248 -0.60083,-0.497055 -0.0181,0.195269 -0.0499,0.546757 -0.071,0.781086 -0.0289,0.323593 -0.49925,0.446238 -1.95546,0.510026 l -1.91719,0.08397 0,-2.671242 z m 4.73681,-2.921974 c 0.21783,-0.56765 -0.473,-1.037755 -0.94697,-0.644398 -0.42981,0.356695 -0.18129,1.099111 0.36791,1.099111 0.22252,0 0.48309,-0.204625 0.57906,-0.454713 z m 47.7142,5.377908 c -0.10426,-0.104156 -0.18938,-1.388629 -0.18938,-2.854415 0,-2.680147 -0.29748,-3.772381 -1.35641,-4.980094 -0.23973,-0.273379 -0.38405,-0.501808 -0.32079,-0.507611 1.54024,-0.141357 7.41607,0.04111 7.95105,0.246882 0.89522,0.344352 2.18302,1.823817 2.42425,2.785038 0.26595,1.059546 -0.0683,2.945631 -0.66257,3.741967 -0.98657,1.321394 -2.24544,1.757587 -5.07244,1.757587 -1.42142,0 -2.66961,-0.08523 -2.77371,-0.189354 z m 4.58112,-3.647631 c -0.10231,-2.251867 -0.61867,-2.571331 -0.73922,-0.457331 -0.0953,1.671259 0.0472,2.3061 0.51729,2.3061 0.19578,0 0.27569,-0.665427 0.22193,-1.848769 z m 4.03443,3.569715 c 0,-0.146997 0.12883,-0.346822 0.28606,-0.444056 0.57181,-0.353395 1.1377,-1.853999 1.40142,-3.716241 0.22237,-1.570138 0.43281,-2.072333 1.20023,-2.864106 2.85421,-2.944804 7.38475,-1.159709 7.38475,2.909693 0,1.632762 -0.15864,1.825701 -1.50102,1.825701 -0.68508,0 -1.06644,0.112788 -0.96058,0.284034 0.0963,0.156215 0.42363,0.284029 0.72684,0.284029 0.85831,0 0.64913,0.800779 -0.3718,1.423268 -0.79252,0.483196 -1.43542,0.562976 -4.54449,0.563886 -2.07424,6.28e-4 -3.62141,-0.113126 -3.62141,-0.266208 z m 6.53271,-5.576185 c 0,-0.264496 -0.19326,-0.409392 -0.47354,-0.355037 -0.71253,0.138201 -0.81038,0.801912 -0.11804,0.801912 0.34886,0 0.59171,-0.183395 0.59171,-0.446875 z m 3.89332,4.849358 c 0.7144,-0.895399 0.93278,-0.994105 2.19917,-0.994111 1.50466,-8e-6 1.51511,-0.453648 0.0155,-0.617221 -0.8453,-0.09211 -0.85207,-0.106886 -0.84999,-1.851596 0.001,-1.561089 0.0978,-1.860274 0.85211,-2.662265 1.34592,-1.430743 2.12874,-1.621365 6.02943,-1.468288 l 3.47529,0.136414 -0.71026,0.888238 c -0.39065,0.488531 -0.8412,1.048006 -1.00122,1.243276 -0.16003,0.195269 -0.75882,0.355038 -1.33065,0.355038 -1.14009,0 -0.98469,0.455084 0.21001,0.615017 0.60724,0.08133 0.72128,0.259606 0.78744,1.231182 0.094,1.38141 -0.67174,2.746961 -1.99198,3.551917 -0.80083,0.488277 -1.43494,0.564546 -4.7012,0.565462 l -3.77551,0.0012 0.79318,-0.994097 z m 14.73638,-1.775201 c -0.49264,-2.769511 -1.24451,-4.937834 -1.83972,-5.305682 -0.71367,-0.441084 -0.20211,-0.584949 1.8849,-0.5301 1.21075,0.03182 3.13938,0.06379 4.28585,0.07102 l 2.08445,0.01274 -0.71569,0.85056 c -0.82519,0.980687 -0.84773,1.046205 -1.46504,4.261989 -0.70047,3.649035 -0.54194,3.40837 -2.24523,3.40837 l -1.49689,0 -0.49263,-2.769299 z m 6.08192,2.556276 c 6.3e-4,-0.117156 0.24677,-1.48009 0.54727,-3.028719 0.55823,-2.877399 1.01813,-3.803159 2.40217,-4.835582 1.63137,-1.216931 5.57052,-0.311842 5.57052,1.27993 0,0.48084 -0.20921,0.548718 -1.6913,0.548718 -1.68791,0 -1.69165,0.0018 -1.86682,0.9356 -0.23375,1.245938 -0.0633,3.115656 0.29457,3.232837 0.17255,0.05646 0.28573,-0.606679 0.28405,-1.663843 l -0.003,-1.757749 1.81163,0.02383 c 2.06678,0.02717 2.38386,0.293639 2.12484,1.785611 -0.21359,1.230573 -1.28356,2.702309 -2.37488,3.266646 -0.86947,0.449642 -7.1011,0.636365 -7.09924,0.212727 z m 10.93924,-0.142009 c -0.0659,-0.195273 -0.15739,-1.643525 -0.20411,-3.218336 -0.0777,-2.619025 -0.15151,-2.950586 -0.86602,-3.88647 -0.4296,-0.562748 -0.78112,-1.063652 -0.78117,-1.113131 -5e-5,-0.04948 1.74317,-0.06973 3.87383,-0.04499 4.28302,0.04975 4.71505,0.199752 5.9963,2.082364 0.55595,0.816864 0.6391,1.302914 0.6391,3.737284 l 0,2.798305 -1.98822,0 c -1.93143,0 -1.98822,-0.02029 -1.98822,-0.710079 0,-0.390541 -0.12766,-0.710079 -0.28403,-0.710079 -0.15621,0 -0.28403,0.319538 -0.28403,0.710079 0,0.690092 -0.056,0.710079 -1.99712,0.710079 -1.34483,0 -2.03606,-0.115973 -2.11631,-0.355042 z M 109.03485,60.448105 c 0,-0.33824 0.27397,-0.999729 0.60882,-1.469987 0.8996,-1.263367 0.92953,-2.389448 0.10108,-3.803059 -0.74435,-1.270127 -0.88458,-1.962875 -0.45153,-2.230519 0.5513,-0.340722 1.16874,0.235456 1.46007,1.362514 0.16749,0.647855 0.56733,1.544542 0.88855,1.992635 0.45998,0.641641 0.50524,0.863408 0.21307,1.043979 -0.20403,0.126087 -0.63451,0.973713 -0.9566,1.883582 -0.4528,1.279049 -0.73058,1.674899 -1.22456,1.745072 -0.49377,0.07012 -0.63893,-0.04897 -0.63893,-0.524217 z m 48.53077,-1.87176 c -0.51514,-1.877017 -0.81215,-2.500914 -1.27488,-2.67764 -0.33178,-0.126711 -0.92989,-0.814866 -1.32913,-1.529192 l -0.72591,-1.298793 5.23457,0 c 2.87902,0 5.23456,0.0478 5.23456,0.106236 0,0.454149 -1.55145,2.734062 -1.86047,2.734062 -0.52519,0 -0.81084,0.608496 -1.43341,3.053328 l -0.52435,2.059222 -1.32465,0 -1.32468,0 -0.67165,-2.447225 z m 7.54366,1.903044 c 0.29465,-0.325564 0.8674,-0.59368 1.27274,-0.595812 1.17523,-0.0062 2.01522,-0.314359 2.01522,-0.739328 0,-0.246186 -0.31447,-0.392923 -0.8421,-0.392923 -1.07364,0 -1.43985,-0.668096 -1.16995,-2.1342 0.54131,-2.9405 1.5774,-3.543925 6.08742,-3.545345 l 3.36518,-0.0012 -0.58201,0.9231 c -0.46975,0.745026 -0.81341,0.950494 -1.78105,1.065114 -1.41058,0.167079 -1.77449,0.75438 -0.6242,1.007351 1.41569,0.311343 1.51135,0.382735 1.51135,1.12807 0,0.939584 -0.5949,2.076953 -1.55718,2.97713 -0.71695,0.670647 -0.96654,0.715343 -4.4951,0.804959 l -3.73602,0.09489 0.5357,-0.591936 z m -47.05647,-3.090998 c -0.69518,-0.05972 -1.0651,-0.233522 -1.0651,-0.500407 0,-0.348155 1.49542,-0.408898 10.06632,-0.408898 9.52819,0 10.93947,0.107133 10.26717,0.779443 -0.17831,0.178319 -17.35664,0.294092 -19.26839,0.12987 z m 23.92959,-0.51804 c 0,-0.371254 0.0805,-0.394103 0.41361,-0.117546 0.22747,0.188789 0.56676,0.248597 0.75396,0.132889 0.21532,-0.133075 0.26589,-0.08988 0.13771,0.117559 -0.30858,0.499266 -1.30527,0.397771 -1.30527,-0.132903 z m 89.88201,-6.762907 c -0.52178,-0.796329 -0.22986,-1.638917 0.74927,-2.162945 1.28911,-0.689908 2.67592,1.459064 1.62181,2.513137 -0.59434,0.594378 -1.87619,0.405056 -2.37108,-0.350192 z M 24.417855,42.750087 c -0.343941,-0.181781 -2.702047,-2.82264 -5.240247,-5.868576 -2.538203,-3.045934 -5.029558,-5.817487 -5.536344,-6.15901 -1.735835,-1.169783 -6.3154106,-1.199882 -8.1863996,-0.05382 -1.642781,1.006283 -2.079375,2.444478 -2.079375,6.849735 0,4.274894 -0.174795,4.759132 -1.717924,4.759132 -1.71353102,0 -1.71646502,-0.02479 -1.62818902,-13.733748 l 0.07975,-12.386581 0.92868002,-0.928331 0.928679,-0.928335 10.2905266,0 10.290528,0 1.512048,0.837591 c 2.704143,1.497952 4.028276,3.766317 4.023774,6.893117 -0.0057,4.084851 -2.608337,7.087586 -6.72319,7.757298 -1.6428,0.267372 -2.363016,0.659088 -2.363016,1.28521 0,0.204548 1.125074,1.690704 2.500167,3.302578 4.561129,5.346528 5.168655,6.172303 5.168655,7.025393 0,1.224886 -1.162519,1.922122 -2.248135,1.348341 z M 21.536901,26.376596 c 1.317544,-0.377865 2.80465,-1.88042 3.157309,-3.190114 0.54486,-2.023435 -0.599755,-4.446819 -2.469257,-5.227948 -1.396935,-0.583678 -15.9861136,-0.565012 -17.1210836,0.02188 -1.129653,0.584167 -1.728579,2.03141 -1.727316,4.173882 0.0013,2.145977 0.674117,3.476352 2.063754,4.080459 1.103537,0.479742 14.5065896,0.597822 16.0965936,0.141824 z m 14.053386,15.575876 c -0.3249,-0.15765 -0.804198,-0.648019 -1.065115,-1.089712 -0.422923,-0.715955 -0.474386,-2.099668 -0.474386,-12.755061 l 0,-11.951983 0.828584,-0.927581 0.828583,-0.92758 12.307828,-0.08189 c 6.769306,-0.04502 12.591723,-0.0117 12.938702,0.07435 1.398388,0.346351 1.543579,2.335663 0.214668,2.941154 -0.512994,0.233736 -3.645008,0.332729 -10.527258,0.332729 -9.058793,0 -9.876576,0.0406 -10.853034,0.538743 -3.044072,1.55297 -3.022784,6.242051 0.03596,7.915448 0.786933,0.430525 1.976377,0.503752 9.416869,0.57972 9.153682,0.09346 9.525911,0.155665 9.515427,1.590246 -0.01053,1.451159 0.07108,1.437184 -9.286853,1.589154 -8.169525,0.132669 -8.810121,0.180424 -9.738688,0.725907 -2.149391,1.262643 -2.852945,4.056196 -1.572012,6.241932 1.235604,2.108397 1.311469,2.121134 12.63387,2.121134 l 9.982067,0 0.697161,0.697171 c 0.828805,0.828802 0.889719,1.596809 0.177748,2.241128 -0.467431,0.423022 -1.767931,0.468147 -12.994396,0.450846 C 40.884057,42.246237 35.958329,42.13107 35.590304,41.95247 Z m 33.58229,-0.194331 c -0.422955,-0.467363 -0.470068,-1.819427 -0.470068,-13.491449 0,-12.593321 0.01664,-12.988615 0.568064,-13.540089 0.715996,-0.715992 1.730336,-0.725867 2.595819,-0.02529 l 0.670533,0.542785 0.07931,12.757766 c 0.07833,12.593873 0.07167,12.767513 -0.517662,13.51672 -0.721837,0.917662 -2.20261,1.038891 -2.92601,0.239542 z m 10.379901,0.178584 c -0.255371,-0.25537 -0.340835,-3.668954 -0.340835,-13.613175 0,-15.312025 -0.201375,-14.244185 2.660269,-14.106698 l 1.742204,0.08371 7.329912,8.66157 c 4.031446,4.763862 7.610232,8.817415 7.952857,9.007899 0.860662,0.478504 2.335845,0.449987 3.330525,-0.06439 1.59353,-0.824033 1.69489,-1.379692 1.69489,-9.29089 0,-6.051154 0.0703,-7.293945 0.44215,-7.824944 0.55204,-0.788137 1.64443,-0.816924 2.39816,-0.06321 0.55154,0.551541 0.56806,0.946768 0.56806,13.589447 0,15.039419 0.21426,13.961511 -2.7753,13.961511 l -1.73646,0 -1.27105,-1.491162 c -0.69907,-0.820141 -4.035341,-4.780945 -7.413934,-8.80179 -3.378587,-4.020848 -6.384364,-7.439865 -6.679503,-7.597816 -1.767236,-0.945793 -4.264952,0.201627 -4.82452,2.216338 -0.161776,0.582451 -0.291453,4.140222 -0.292335,8.019806 -0.0018,5.042852 -0.09593,7.067291 -0.342426,7.313787 -0.187456,0.187461 -0.737061,0.340836 -1.221332,0.340836 -0.48427,0 -1.033872,-0.153386 -1.221332,-0.340836 z m 68.508172,-0.624869 -0.96572,-0.965703 0,-12.647469 c 0,-13.718437 -0.0202,-13.540143 1.53844,-13.540143 1.52778,0 1.55163,0.162847 1.64328,11.226501 0.0802,9.713139 0.11336,10.266854 0.66807,11.210941 0.32086,0.546229 1.01077,1.281159 1.53316,1.633174 0.94153,0.634502 1.03788,0.64004 11.14574,0.64004 l 10.19603,0 0.69715,0.697162 c 0.81238,0.812391 0.86164,1.213895 0.25502,2.079937 l -0.44209,0.631265 -12.65172,0 -12.65165,0 -0.96571,-0.965705 z m 33.81638,0.0168 -0.98243,-0.982493 0,-11.829774 c 0,-12.979083 0.0104,-13.05532 1.69487,-13.926981 1.19465,-0.617776 13.35255,-0.623328 15.71808,-0.0073 5.15005,1.341416 9.37095,5.732571 10.43442,10.855297 0.42102,2.028055 0.23294,5.116211 -0.44031,7.229585 -1.15289,3.618854 -4.66031,7.343093 -8.28549,8.797656 -1.56766,0.629009 -2.05712,0.668298 -9.40518,0.754943 l -7.75144,0.09139 -0.98252,-0.98248 z m 17.54651,-3.364972 c 2.07837,-0.974069 4.13956,-3.03524 5.20475,-5.204743 0.75486,-1.537504 0.83493,-1.972882 0.83485,-4.540857 -3e-5,-2.565185 -0.0806,-3.004781 -0.83235,-4.538298 -1.06019,-2.162894 -2.9696,-4.072321 -5.13583,-5.135898 -1.70056,-0.83495 -1.70061,-0.834959 -7.09716,-0.834959 -5.12748,0 -5.44082,0.03162 -6.28465,0.63348 -1.75422,1.251294 -1.84563,1.785162 -1.75223,10.230095 0.0811,7.323935 0.10673,7.630317 0.71405,8.481656 1.18995,1.668172 1.91371,1.83463 7.60687,1.749486 4.87449,-0.0729 5.18843,-0.112008 6.7417,-0.83998 z m 29.65825,3.794491 c -0.57954,-0.640364 -0.58791,-1.430812 -0.0231,-2.178875 0.41185,-0.545504 0.84853,-0.573698 10.99715,-0.710075 9.68284,-0.130105 10.63329,-0.186123 11.34432,-0.66846 2.73936,-1.858179 2.55086,-5.990407 -0.35096,-7.695081 -0.93595,-0.549814 -1.55923,-0.5916 -10.82024,-0.725433 -10.61468,-0.153402 -10.36956,-0.115349 -11.20992,-1.7404 -0.31255,-0.604421 -0.40497,-2.029907 -0.39724,-6.127346 0.014,-5.78794 0.10907,-6.237139 1.57125,-7.201116 0.79116,-0.521538 1.45396,-0.549169 13.21526,-0.550946 11.63643,-0.0016 12.41062,0.02941 12.85236,0.517543 0.67093,0.741355 0.59338,1.918274 -0.16116,2.4468 -0.54268,0.380093 -2.05157,0.442152 -10.75117,0.442152 -10.05576,0 -10.12596,0.004 -11.07823,0.645827 -1.645,1.108574 -2.31957,2.384478 -2.17995,4.123461 0.13707,1.708368 0.7862,2.758069 2.23186,3.609611 0.90045,0.530366 1.61897,0.577487 10.82859,0.710078 l 9.86416,0.142025 0.78698,0.78692 0.787,0.786916 0.087,5.97116 0.0868,5.971161 -0.98176,0.981753 -0.98172,0.981735 -12.62374,0 c -11.86899,0 -12.65186,-0.03104 -13.09381,-0.51942 z M 214.7252,16.534154 c -1.00571,-0.70443 -0.69087,-2.392771 0.7146,-3.832093 0.59061,-0.604875 1.19749,-1.099776 1.34852,-1.099776 0.15105,0 1.13523,-0.83079 2.18699,-1.8461985 1.05178,-1.015409 2.08803,-1.8461974 2.3028,-1.8461974 0.84302,0 1.65301,0.8753751 1.65301,1.7864851 0,0.7730608 -0.4623,1.3601968 -3.22996,4.1023408 -1.84508,1.828001 -3.46206,3.200136 -3.77125,3.200136 -0.29768,0 -0.83981,-0.209122 -1.20471,-0.464716 z M 69.270573,11.318235 c -0.82547,-0.825474 -0.735292,-2.099472 0.200733,-2.8357451 1.367522,-1.0756954 2.923602,-0.2263404 2.923602,1.5957881 0,1.622291 -1.962962,2.401333 -3.124335,1.239957 z"
     id="path3376"
     inkscape:connector-curvature="0" />
</svg>
